<svg height="48" viewBox="0 0 64 64" width="48" xmlns="http://www.w3.org/2000/svg"><path d="m40.227 12c10.919 0 11.773.854 11.773 11.773v16.453c0 10.919-.854 11.774-11.773 11.774h-2.089v-14.562h5.134l.807-5.77h-5.941s-.009-3.378 0-4.221c.017-1.649 1.394-2.483 2.577-2.471s3.634.004 3.634.004v-5.317s-2.123-.275-4.349-.298c-1.871-.019-3.937.487-5.604 2.167-1.696 1.709-1.963 4.254-1.996 7.364-.009.9 0 2.772 0 2.772h-5.024v5.77h5.024v14.562h-8.626c-10.92 0-11.774-.855-11.774-11.773v-16.454c0-10.919.854-11.773 11.773-11.773z"/></svg>