<svg height="48" viewBox="0 0 64 64" width="48" xmlns="http://www.w3.org/2000/svg"><path d="m40.227 12c10.918 0 11.773.854 11.773 11.773v16.453c0 10.919-.855 11.774-11.773 11.774h-16.454c-10.918 0-11.773-.855-11.773-11.773v-16.454c0-10.919.855-11.773 11.773-11.773zm-15.198 31v-16.272h-5.057v16.272zm-2.528-18.599c1.625 0 2.947-1.322 2.947-2.949 0-1.625-1.322-2.947-2.947-2.947-1.629 0-2.949 1.32-2.949 2.947s1.318 2.949 2.949 2.949zm21.499 18.599v-8.925c0-4.382-.946-7.752-6.067-7.752-2.46 0-4.109 1.349-4.785 2.628h-.068v-2.223h-4.851v16.272h5.054v-8.05c0-2.122.405-4.178 3.036-4.178 2.594 0 2.628 2.427 2.628 4.315v7.913z"/></svg>