<svg height="48" viewBox="0 0 64 64" width="48" xmlns="http://www.w3.org/2000/svg"><path d="m57 17.114c-1.32 1.973-2.991 3.707-4.916 5.097.018.423.028.847.028 1.274 0 13.013-9.902 28.018-28.016 28.018-5.562 0-12.81-1.948-15.095-4.423.772.092 1.556.138 2.35.138 4.615 0 8.861-1.575 12.23-4.216-4.309-.079-7.946-2.928-9.199-6.84 1.96.308 4.447-.17 4.447-.17s-7.7-1.322-7.899-9.779c2.226 1.291 4.46 1.231 4.46 1.231s-4.441-2.734-4.379-8.195c.037-3.221 1.331-4.953 1.331-4.953 8.414 10.361 20.298 10.29 20.298 10.29s-.255-1.471-.255-2.243c0-5.437 4.408-9.847 9.847-9.847 2.832 0 5.391 1.196 7.187 3.111 2.245-.443 4.353-1.263 6.255-2.391-.859 3.44-4.329 5.448-4.329 5.448s2.969-.329 5.655-1.55z"/></svg>